<?xml version="1.0" encoding="UTF-8"?>
<!DOCTYPE svg PUBLIC "-//W3C//DTD SVG 1.1//EN" "http://www.w3.org/Graphics/SVG/1.1/DTD/svg11.dtd">
<!-- Creator: CorelDRAW 2021 (64-Bit) -->
<svg xmlns="http://www.w3.org/2000/svg" xml:space="preserve" width="40px" height="26px" version="1.1" style="shape-rendering:geometricPrecision; text-rendering:geometricPrecision; image-rendering:optimizeQuality; fill-rule:evenodd; clip-rule:evenodd"
viewBox="0 0 40 26.19"
 xmlns:xlink="http://www.w3.org/1999/xlink"
 xmlns:xodm="http://www.corel.com/coreldraw/odm/2003">
 <defs>
  <style type="text/css">
   <![CDATA[
    .fil0 {fill:white;fill-rule:nonzero}
   ]]>
  </style>
 </defs>
 <g id="Layer_x0020_1">
  <metadata id="CorelCorpID_0Corel-Layer"/>
  <path class="fil0" d="M36.03 0l-32.06 0c-2.19,0 -3.97,1.78 -3.97,3.97l0 18.25c0,2.19 1.78,3.97 3.97,3.97l32.06 0c2.19,0 3.97,-1.78 3.97,-3.97l0 -18.25c0,-2.19 -1.78,-3.97 -3.97,-3.97zm1.33 3.97l0 18.25c0,0.21 -0.06,0.4 -0.15,0.57l-9.35 -9.35 9.49 -9.49c0,0.01 0.01,0.01 0.01,0.02zm-34.72 18.25l0 -18.25c0,-0.01 0.01,-0.01 0.01,-0.02l9.49 9.49 -9.35 9.35c-0.09,-0.17 -0.15,-0.36 -0.15,-0.57zm17.77 -5.06c-0.22,0.22 -0.6,0.22 -0.82,0l-14.51 -14.52 29.84 0 -14.51 14.52zm-6.4 -1.85l3.71 3.72c0.61,0.61 1.42,0.94 2.28,0.94 0.86,0 1.67,-0.33 2.28,-0.94l3.71 -3.72 8.23 8.23 -28.44 0 8.23 -8.23z"/>
 </g>
</svg>
